# xmcd CD database file
#
# Track frame offsets:
#	150
#	38251
#	60300
#	82425
#	103438
#	125460
#	146020
#	167738
#	185895
#	207345
#	223170
#	242920
#
# Disc length: 3533 seconds
#
# Revision: 3
# Processed by: cddbd v1.5.2PL0 Copyright (c) Steve Scherf et al.
# Submitted via: CDex 1.79
#
DISCID=bb0dcb0c
DTITLE=Various Performers - Venus Jazz Cafe 2013 Special Blend [CD1]
DYEAR=2013
DGENRE=Jazz
TTITLE0=Moanin' - One For All
TTITLE1=Day In, Day Out - Sally Night
TTITLE2=Judas - Romantic Jazz Trio
TTITLE3=Everthing Happens To Me - Bill Charlap Trio
TTITLE4=Nuage - Nicki Parrott
TTITLE5=Three Little Words - Fred Hersch Trio
TTITLE6=Delilah - Joel Frahm Quartet
TTITLE7=Dos Gardenias - Cyrille Aimee and Diego Figueiredo
TTITLE8=Taboo - Bob Kindred Quartet
TTITLE9='S Wonderful - Ted Rosenthal Trio
TTITLE10=I've Had My Moments - Ken Peplowski Gypsy Jazz Band
TTITLE11=I Concentrate On You - Maucha Adnet
EXTD=YEAR: 2013
EXTT0=
EXTT1=
EXTT2=
EXTT3=
EXTT4=
EXTT5=
EXTT6=
EXTT7=
EXTT8=
EXTT9=
EXTT10=
EXTT11=
PLAYORDER=
